<?xml version="1.0" encoding="UTF-8"?>
<svg width="48px" height="48px" viewBox="0 0 48 48" version="1.1" xmlns="http://www.w3.org/2000/svg" xmlns:xlink="http://www.w3.org/1999/xlink">
    <title>linkedin</title>
    <g id="linkedin" stroke="none" stroke-width="1" fill="none" fill-rule="evenodd" opacity="0.99">
        <g fill="#000000" id="Shape">
            <path d="M21.9375,0 C23.34375,0 24.75,0 26.15625,0 C34.560375,1.02074062 40.8885,5.17699688 45.140625,12.46875 C46.7057813,15.4191563 47.6588438,18.544125 48,21.84375 C48,23.25 48,24.65625 48,26.0625 C46.829625,35.4662813 41.954625,42.1694063 33.375,46.171875 C31.014,47.137125 28.5765,47.7465 26.0625,48 C24.65625,48 23.25,48 21.84375,48 C12.2750625,46.7554688 5.5407,41.7241875 1.640625,32.90625 C0.799771875,30.7150313 0.252897188,28.4650313 0,26.15625 C0,24.7187812 0,23.2812188 0,21.84375 C0.919404375,13.9445625 4.70065313,7.83519375 11.34375,3.515625 C14.6176875,1.5441 18.148875,0.372225 21.9375,0 Z M13.78125,11.4375 C15.5295938,11.2964063 16.7014687,12.0464063 17.296875,13.6875 C17.5629375,15.3275625 16.9535625,16.4994375 15.46875,17.203125 C13.6971563,17.6844375 12.4003125,17.1062813 11.578125,15.46875 C11.1340313,13.482 11.868375,12.1382812 13.78125,11.4375 Z M29.4375,19.40625 C33.938625,19.0234687 36.2979375,21.0859687 36.515625,25.59375 C36.5625,29.2499063 36.5781562,32.9061563 36.5625,36.5625 C34.8437812,36.5625 33.1249688,36.5625 31.40625,36.5625 C31.4495625,33.0280312 31.4026875,29.49675 31.265625,25.96875 C30.9391875,24.5795625 30.0642188,23.8920937 28.640625,23.90625 C26.9712187,23.8969687 25.9711875,24.7095 25.640625,26.34375 C25.5036562,29.7466875 25.4567812,33.153 25.5,36.5625 C23.7812812,36.5625 22.0624688,36.5625 20.34375,36.5625 C20.34375,30.9687188 20.34375,25.3750312 20.34375,19.78125 C22.0000312,19.78125 23.6562188,19.78125 25.3125,19.78125 C25.2814687,20.565 25.3126875,21.3462188 25.40625,22.125 C26.359875,20.6330625 27.7035937,19.726875 29.4375,19.40625 Z M11.8125,19.78125 C13.5312188,19.78125 15.2500312,19.78125 16.96875,19.78125 C16.96875,25.3750312 16.96875,30.9687188 16.96875,36.5625 C15.2500312,36.5625 13.5312188,36.5625 11.8125,36.5625 C11.8125,30.9687188 11.8125,25.3750312 11.8125,19.78125 Z"></path>
        </g>
    </g>
</svg>