<?xml version="1.0" encoding="UTF-8"?>
<svg width="48px" height="48px" viewBox="0 0 48 48" version="1.1" xmlns="http://www.w3.org/2000/svg" xmlns:xlink="http://www.w3.org/1999/xlink">
    <title>mail</title>
    <g id="mail" stroke="none" stroke-width="1" fill="none" fill-rule="evenodd" opacity="0.986">
        <g fill="#000000" id="Shape">
            <path d="M21.84375,0 C23.2812188,0 24.7187812,0 26.15625,0 C34.560375,1.02074062 40.8885,5.17699688 45.140625,12.46875 C46.7057813,15.4191563 47.6588438,18.544125 48,21.84375 C48,23.2812188 48,24.7187812 48,26.15625 C46.97925,34.560375 42.8230312,40.8885 35.53125,45.140625 C32.5808437,46.7057813 29.455875,47.6588438 26.15625,48 C24.7187812,48 23.2812188,48 21.84375,48 C13.439625,46.97925 7.11151875,42.8230312 2.859375,35.53125 C1.29424688,32.5808437 0.34111875,29.455875 0,26.15625 C0,24.7187812 0,23.2812188 0,21.84375 C1.02070312,13.4397188 5.17695,7.11162187 12.46875,2.859375 C15.4191563,1.29424688 18.544125,0.34111875 21.84375,0 Z M10.78125,13.78125 C19.5938438,13.7655937 28.4063437,13.78125 37.21875,13.828125 C37.633875,13.8934687 38.008875,14.0496562 38.34375,14.296875 C33.5914688,17.6413125 28.8102188,20.938125 24,24.1875 C19.1897813,20.938125 14.4085312,17.6413125 9.65625,14.296875 C10.011,14.0597812 10.386,13.8879375 10.78125,13.78125 Z M8.8125,16.5 C11.7612187,18.5262187 14.6987812,20.5731563 17.625,22.640625 C14.7354375,25.6832813 11.8135312,28.6989375 8.859375,31.6875 C8.8125,26.6250937 8.79687187,21.5625938 8.8125,16.5 Z M39.09375,16.5 C39.2029687,21.54675 39.218625,26.60925 39.140625,31.6875 C36.1864687,28.6989375 33.2645625,25.6832813 30.375,22.640625 C33.298125,20.606625 36.204375,18.5596875 39.09375,16.5 Z M19.40625,24 C19.504875,23.9860312 19.598625,24.0015937 19.6875,24.046875 C20.860125,24.8363437 22.0164375,25.6487812 23.15625,26.484375 C23.4195937,26.6398125 23.7008437,26.7492187 24,26.8125 C24.2991562,26.7492187 24.5804062,26.6398125 24.84375,26.484375 C25.9835625,25.6487812 27.139875,24.8363437 28.3125,24.046875 C28.40625,23.9843438 28.5,23.9843438 28.59375,24.046875 C31.7500312,27.328125 34.9062188,30.609375 38.0625,33.890625 C37.7940938,34.0217812 37.5128438,34.1155312 37.21875,34.171875 C28.40625,34.2344062 19.59375,34.2344062 10.78125,34.171875 C10.4871562,34.1155312 10.2059062,34.0217812 9.9375,33.890625 C13.1128125,30.606 16.2690937,27.3091875 19.40625,24 Z"></path>
        </g>
    </g>
</svg>