<?xml version="1.0" encoding="UTF-8"?>
<svg width="48px" height="48px" viewBox="0 0 48 48" version="1.1" xmlns="http://www.w3.org/2000/svg" xmlns:xlink="http://www.w3.org/1999/xlink">
    <title>medium</title>
    <g id="medium" stroke="none" stroke-width="1" fill="none" fill-rule="evenodd" opacity="0.994">
        <g fill="#000000" id="Shape">
            <path d="M21.84375,0 C23.2812188,0 24.7187812,0 26.15625,0 C34.560375,1.02074062 40.8885,5.17699688 45.140625,12.46875 C46.7057813,15.4191563 47.6588438,18.544125 48,21.84375 C48,23.2812188 48,24.7187812 48,26.15625 C46.97925,34.560375 42.8230312,40.8885 35.53125,45.140625 C32.5808437,46.7057813 29.455875,47.6588438 26.15625,48 C24.7187812,48 23.2812188,48 21.84375,48 C13.439625,46.97925 7.11151875,42.8230312 2.859375,35.53125 C1.29424688,32.5808437 0.34111875,29.455875 0,26.15625 C0,24.7187812 0,23.2812188 0,21.84375 C1.02070312,13.4397188 5.17695,7.11162187 12.46875,2.859375 C15.4191563,1.29424688 18.544125,0.34111875 21.84375,0 Z M14.8125,13.6875 C20.0235,13.424625 23.6640937,15.674625 25.734375,20.4375 C27.0914062,24.9554062 26.0445937,28.8148125 22.59375,32.015625 C19.4971875,34.3757813 16.090875,34.9382813 12.375,33.703125 C8.12884687,31.8070313 5.94135,28.5257813 5.8125,23.859375 C6.02417812,19.3096875 8.211675,16.1221875 12.375,14.296875 C13.178625,14.0022188 13.9910625,13.7990625 14.8125,13.6875 Z M31.875,14.25 C33.0349687,14.1730312 34.0349062,14.532375 34.875,15.328125 C35.8575937,16.4646562 36.5607187,17.7615 36.984375,19.21875 C37.7586563,22.2709687 37.7899687,25.3335 37.078125,28.40625 C36.649125,30.2807812 35.7272813,31.8589687 34.3125,33.140625 C32.641875,34.1318437 31.1575312,33.8974687 29.859375,32.4375 C28.761375,31.0220625 28.0425937,29.4283125 27.703125,27.65625 C27.0815625,24.4064062 27.3002813,21.2189062 28.359375,18.09375 C28.8927188,16.695 29.752125,15.5544375 30.9375,14.671875 C31.2555937,14.52 31.5680625,14.379375 31.875,14.25 Z M40.21875,15.28125 C40.51425,15.2305312 40.748625,15.3242812 40.921875,15.5625 C41.2139063,16.0635 41.432625,16.5947812 41.578125,17.15625 C42.0474375,19.3333125 42.2505938,21.5364375 42.1875,23.765625 C42.2412188,25.9873125 42.0692812,28.1904375 41.671875,30.375 C41.496,31.090125 41.2459687,31.7776875 40.921875,32.4375 C40.5488438,32.826 40.2051563,32.7946875 39.890625,32.34375 C39.5475,31.6581562 39.2974688,30.939375 39.140625,30.1875 C38.488125,26.1928125 38.4568125,22.192875 39.046875,18.1875 C39.1744687,17.0991562 39.565125,16.1303437 40.21875,15.28125 Z"></path>
        </g>
    </g>
</svg>